<svg id="svg" version="1.1" xmlns="http://www.w3.org/2000/svg" xmlns:xlink="http://www.w3.org/1999/xlink" width="400" height="400" viewBox="0, 0, 400,400"><g id="svgg"><path id="path0" d="M392.776 7.129 C 388.962 11.050,362.094 38.076,333.070 67.188 C 304.046 96.299,274.894 125.566,268.288 132.227 L 256.277 144.336 260.784 151.172 C 272.278 168.605,274.309 172.722,274.368 178.711 L 274.406 182.617 271.026 192.383 C 269.167 197.754,265.181 209.268,262.169 217.969 C 259.156 226.670,254.184 241.172,251.119 250.195 C 245.304 267.313,244.639 268.750,242.537 268.750 C 241.427 268.750,241.659 269.220,243.342 270.384 C 245.424 271.822,246.826 274.396,247.500 278.014 C 249.184 287.044,250.595 293.940,252.919 304.492 C 254.338 310.938,255.647 317.362,255.828 318.768 C 256.706 325.598,253.633 331.558,247.737 334.461 L 245.134 335.742 200.594 335.848 C 149.285 335.970,152.849 336.208,148.671 332.389 C 142.614 326.853,142.486 324.097,147.264 302.148 C 149.228 293.125,151.260 283.377,151.778 280.486 C 152.865 274.428,153.811 272.496,156.755 270.313 L 158.599 268.945 157.333 268.683 C 154.980 268.195,154.209 266.762,150.934 256.780 C 149.252 251.654,147.830 247.391,147.774 247.307 C 147.719 247.222,114.454 280.444,73.853 321.135 L 0.033 395.117 0.017 397.559 L 0.000 400.000 200.000 400.000 L 400.000 400.000 400.000 200.000 C 400.000 90.000,399.935 0.000,399.856 0.000 C 399.776 0.000,396.591 3.208,392.776 7.129 M206.641 134.487 L 206.836 174.805 209.080 176.910 C 216.020 183.421,215.308 191.246,207.061 199.099 C 201.030 204.843,201.563 201.784,201.563 230.672 L 201.563 255.078 214.551 255.110 C 233.094 255.156,232.036 255.220,233.286 253.980 C 234.099 253.174,235.293 250.161,238.424 241.016 C 240.667 234.463,243.820 225.322,245.429 220.703 C 254.221 195.473,258.564 182.839,258.924 181.445 C 259.884 177.738,259.485 176.977,243.549 152.148 C 236.247 140.772,214.405 106.448,210.365 100.000 C 208.682 97.314,207.111 94.904,206.875 94.643 C 206.562 94.298,206.499 105.148,206.641 134.487 " stroke="none" fill="#e3e3db" fill-rule="evenodd"></path><path id="path1" d="M-0.000 197.279 C -0.000 385.047,0.033 394.541,0.684 394.184 C 1.298 393.847,96.041 299.058,132.890 261.914 L 147.615 247.070 143.187 233.789 C 137.933 218.030,134.405 207.912,130.164 196.440 C 122.917 176.836,122.939 176.691,136.246 155.987 C 140.129 149.946,145.092 142.148,147.275 138.656 C 149.459 135.165,153.486 128.863,156.224 124.651 C 161.676 116.263,170.464 102.477,180.777 86.133 C 194.423 64.506,193.770 65.329,198.017 64.421 C 203.635 63.221,205.855 64.954,212.766 75.932 C 218.844 85.586,233.947 109.384,242.173 122.266 C 245.534 127.529,250.033 134.596,252.170 137.969 C 254.306 141.342,256.165 144.111,256.300 144.122 C 256.435 144.132,264.405 136.187,274.010 126.465 C 283.616 116.743,313.301 86.904,339.977 60.156 C 366.652 33.408,391.024 8.931,394.136 5.762 L 399.795 0.000 199.897 0.000 L 0.000 0.000 -0.000 197.279 M197.787 88.393 C 196.673 89.017,195.649 90.364,194.389 92.858 L 193.359 94.896 193.359 134.873 L 193.359 174.850 191.649 176.055 C 183.253 181.973,185.084 195.953,194.729 199.582 C 209.208 205.029,220.297 187.294,208.969 176.807 L 206.641 174.651 206.641 134.746 L 206.641 94.841 205.198 92.095 C 203.186 88.267,200.449 86.900,197.787 88.393 M156.582 270.424 C 153.789 272.554,152.848 274.525,151.778 280.486 C 151.260 283.377,149.228 293.125,147.264 302.148 C 142.486 324.097,142.614 326.853,148.671 332.389 C 152.849 336.208,149.285 335.970,200.594 335.848 L 245.134 335.742 247.737 334.461 C 253.633 331.558,256.706 325.598,255.828 318.768 C 255.647 317.362,254.338 310.938,252.919 304.492 C 250.595 293.940,249.184 287.044,247.500 278.014 C 246.823 274.382,245.448 271.870,243.275 270.296 L 241.680 269.141 199.972 269.141 L 158.264 269.141 156.582 270.424 " stroke="none" fill="#0b2b5b" fill-rule="evenodd"></path><path id="path2" d="M197.242 64.596 C 193.670 65.559,194.182 64.889,180.777 86.133 C 170.464 102.477,161.676 116.263,156.224 124.651 C 153.486 128.863,149.459 135.165,147.275 138.656 C 145.092 142.148,140.129 149.946,136.246 155.987 C 122.939 176.691,122.917 176.836,130.164 196.440 C 135.444 210.724,139.451 222.390,150.820 256.579 C 154.282 266.992,154.922 268.140,157.617 268.761 C 159.362 269.164,240.169 269.290,242.153 268.894 C 244.869 268.350,245.152 267.760,251.119 250.195 C 254.184 241.172,259.156 226.670,262.169 217.969 C 275.803 178.589,274.398 183.075,274.397 178.906 C 274.395 173.047,272.493 169.065,262.175 153.320 C 257.690 146.476,246.305 128.792,240.045 118.945 C 237.859 115.508,233.109 108.037,229.488 102.344 C 225.868 96.650,219.583 86.719,215.523 80.273 C 205.380 64.174,203.808 62.825,197.242 64.596 M202.491 88.577 C 203.110 88.953,204.252 90.338,205.030 91.655 C 205.809 92.972,207.292 95.344,208.328 96.927 C 209.363 98.510,215.404 107.979,221.752 117.969 C 228.099 127.959,236.558 141.230,240.549 147.461 C 257.562 174.020,258.518 175.615,259.022 178.268 C 259.460 180.575,260.010 178.860,245.429 220.703 C 243.820 225.322,240.667 234.463,238.424 241.016 C 235.293 250.161,234.099 253.174,233.286 253.980 C 232.036 255.220,233.094 255.156,214.551 255.110 L 201.563 255.078 201.563 230.652 C 201.563 202.857,201.342 204.766,204.977 201.082 L 207.186 198.844 205.096 199.638 C 190.377 205.231,178.874 185.060,191.649 176.055 L 193.359 174.850 193.359 134.873 L 193.359 94.896 194.389 92.858 C 196.778 88.128,199.438 86.723,202.491 88.577 " stroke="none" fill="#fbbc0c" fill-rule="evenodd"></path></g></svg>