<svg id="svg" version="1.1" xmlns="http://www.w3.org/2000/svg" xmlns:xlink="http://www.w3.org/1999/xlink" width="400" height="503.9443155452436" viewBox="0, 0, 400,503.9443155452436"><g id="svgg"><path id="path0" d="M218.217 89.700 C 218.070 93.275,218.006 134.540,218.075 181.400 L 218.200 266.600 219.041 268.400 C 219.540 269.467,221.307 271.585,223.380 273.600 C 240.383 290.131,238.296 313.735,218.700 326.540 C 216.775 327.798,215.200 328.970,215.200 329.144 C 215.200 329.319,213.924 331.158,212.365 333.231 C 209.264 337.355,208.077 339.452,206.947 342.800 C 206.046 345.470,205.522 451.420,206.390 455.440 C 207.504 460.598,206.397 460.456,244.429 460.317 L 276.257 460.200 278.617 458.993 C 283.336 456.579,283.095 457.097,293.300 427.400 C 306.550 388.840,314.994 364.500,321.680 345.600 C 322.342 343.730,326.361 332.120,330.612 319.800 C 334.864 307.480,338.974 295.600,339.746 293.400 C 343.195 283.572,343.446 279.184,340.921 272.815 C 338.677 267.155,330.863 254.622,289.288 190.000 C 282.763 179.859,247.324 124.151,232.333 100.473 C 224.937 88.791,223.479 86.713,221.370 84.857 C 218.508 82.338,218.522 82.317,218.217 89.700 " stroke="none" fill="#e4e3db" fill-rule="evenodd"></path><path id="path1" d="M223.400 6.000 C 224.032 6.660,224.730 7.200,224.950 7.200 C 225.170 7.200,224.832 6.660,224.200 6.000 C 223.568 5.340,222.870 4.800,222.650 4.800 C 222.430 4.800,222.768 5.340,223.400 6.000 M177.800 8.800 C 177.172 9.455,176.748 10.082,176.858 10.192 C 176.968 10.302,177.572 9.855,178.200 9.200 C 178.828 8.545,179.252 7.918,179.142 7.808 C 179.032 7.698,178.428 8.145,177.800 8.800 M236.800 24.676 C 236.800 24.896,237.160 25.402,237.600 25.800 C 238.040 26.198,238.400 26.344,238.400 26.124 C 238.400 25.904,238.040 25.398,237.600 25.000 C 237.160 24.602,236.800 24.456,236.800 24.676 M155.800 42.800 C 155.399 43.243,155.162 43.695,155.272 43.805 C 155.382 43.915,155.799 43.643,156.200 43.200 C 156.601 42.757,156.838 42.305,156.728 42.195 C 156.618 42.085,156.201 42.357,155.800 42.800 M254.400 52.676 C 254.400 52.896,254.760 53.402,255.200 53.800 C 255.640 54.198,256.000 54.344,256.000 54.124 C 256.000 53.904,255.640 53.398,255.200 53.000 C 254.760 52.602,254.400 52.456,254.400 52.676 M147.000 56.400 C 146.599 56.843,146.362 57.295,146.472 57.405 C 146.582 57.515,146.999 57.243,147.400 56.800 C 147.801 56.357,148.038 55.905,147.928 55.795 C 147.818 55.685,147.401 55.957,147.000 56.400 M144.600 60.400 C 144.199 60.843,143.962 61.295,144.072 61.405 C 144.182 61.515,144.599 61.243,145.000 60.800 C 145.401 60.357,145.638 59.905,145.528 59.795 C 145.418 59.685,145.001 59.957,144.600 60.400 M198.886 63.932 C 194.720 65.419,190.220 71.085,187.680 78.042 L 186.600 81.000 186.400 174.000 C 186.219 258.360,186.140 267.131,185.556 268.414 C 185.202 269.192,183.281 271.320,181.287 273.143 C 158.032 294.396,171.457 330.308,202.600 330.160 C 211.897 330.115,215.348 329.121,221.139 324.815 C 238.559 311.865,239.546 289.317,223.380 273.600 C 221.307 271.585,219.540 269.467,219.041 268.400 L 218.200 266.600 218.130 173.334 L 218.059 80.068 217.116 77.734 C 212.554 66.438,205.925 61.420,198.886 63.932 M129.400 84.400 C 128.999 84.843,128.762 85.295,128.872 85.405 C 128.982 85.515,129.399 85.243,129.800 84.800 C 130.201 84.357,130.438 83.905,130.328 83.795 C 130.218 83.685,129.801 83.957,129.400 84.400 M118.200 102.000 C 117.799 102.443,117.562 102.895,117.672 103.005 C 117.782 103.115,118.199 102.843,118.600 102.400 C 119.001 101.957,119.238 101.505,119.128 101.395 C 119.018 101.285,118.601 101.557,118.200 102.000 M114.200 108.400 C 113.799 108.843,113.562 109.295,113.672 109.405 C 113.782 109.515,114.199 109.243,114.600 108.800 C 115.001 108.357,115.238 107.905,115.128 107.795 C 115.018 107.685,114.601 107.957,114.200 108.400 M107.000 119.600 C 106.599 120.043,106.362 120.495,106.472 120.605 C 106.582 120.715,106.999 120.443,107.400 120.000 C 107.801 119.557,108.038 119.105,107.928 118.995 C 107.818 118.885,107.401 119.157,107.000 119.600 M308.800 138.276 C 308.800 138.496,309.160 139.002,309.600 139.400 C 310.040 139.798,310.400 139.944,310.400 139.724 C 310.400 139.504,310.040 138.998,309.600 138.600 C 309.160 138.202,308.800 138.056,308.800 138.276 M323.200 160.676 C 323.200 160.896,323.560 161.402,324.000 161.800 C 324.440 162.198,324.800 162.344,324.800 162.124 C 324.800 161.904,324.440 161.398,324.000 161.000 C 323.560 160.602,323.200 160.456,323.200 160.676 M328.800 169.476 C 328.800 169.696,329.160 170.202,329.600 170.600 C 330.040 170.998,330.400 171.144,330.400 170.924 C 330.400 170.704,330.040 170.198,329.600 169.800 C 329.160 169.402,328.800 169.256,328.800 169.476 M63.000 188.400 C 62.599 188.843,62.362 189.295,62.472 189.405 C 62.582 189.515,62.999 189.243,63.400 188.800 C 63.801 188.357,64.038 187.905,63.928 187.795 C 63.818 187.685,63.401 187.957,63.000 188.400 M52.764 204.298 C 52.080 205.150,51.200 206.694,51.200 207.044 C 51.200 207.578,52.411 206.261,52.993 205.093 C 53.699 203.679,53.583 203.278,52.764 204.298 M50.200 208.400 C 49.799 208.843,49.562 209.295,49.672 209.405 C 49.782 209.515,50.199 209.243,50.600 208.800 C 51.001 208.357,51.238 207.905,51.128 207.795 C 51.018 207.685,50.601 207.957,50.200 208.400 M43.000 219.600 C 42.599 220.043,42.362 220.495,42.472 220.605 C 42.582 220.715,42.999 220.443,43.400 220.000 C 43.801 219.557,44.038 219.105,43.928 218.995 C 43.818 218.885,43.401 219.157,43.000 219.600 M17.100 265.431 C 16.935 265.597,16.800 266.099,16.800 266.547 C 16.800 267.135,16.921 267.239,17.238 266.922 C 17.478 266.682,17.613 266.180,17.538 265.807 C 17.462 265.433,17.265 265.264,17.100 265.431 M16.300 271.031 C 16.135 271.197,16.000 271.699,16.000 272.147 C 16.000 272.735,16.121 272.839,16.438 272.522 C 16.678 272.282,16.813 271.780,16.738 271.407 C 16.662 271.033,16.465 270.864,16.300 271.031 M16.800 290.353 C 16.800 291.013,16.980 291.664,17.200 291.800 C 17.433 291.944,17.600 291.545,17.600 290.847 C 17.600 290.187,17.420 289.536,17.200 289.400 C 16.967 289.256,16.800 289.655,16.800 290.353 M17.600 293.153 C 17.600 293.593,17.780 294.064,18.000 294.200 C 18.220 294.336,18.400 294.087,18.400 293.647 C 18.400 293.207,18.220 292.736,18.000 292.600 C 17.780 292.464,17.600 292.713,17.600 293.153 M51.200 390.753 C 51.200 391.193,51.380 391.664,51.600 391.800 C 51.820 391.936,52.000 391.687,52.000 391.247 C 52.000 390.807,51.820 390.336,51.600 390.200 C 51.380 390.064,51.200 390.313,51.200 390.753 M52.000 393.153 C 52.000 393.593,52.180 394.064,52.400 394.200 C 52.620 394.336,52.800 394.087,52.800 393.647 C 52.800 393.207,52.620 392.736,52.400 392.600 C 52.180 392.464,52.000 392.713,52.000 393.153 M56.800 407.553 C 56.800 407.993,56.980 408.464,57.200 408.600 C 57.420 408.736,57.600 408.487,57.600 408.047 C 57.600 407.607,57.420 407.136,57.200 407.000 C 56.980 406.864,56.800 407.113,56.800 407.553 M57.600 409.953 C 57.600 410.393,57.780 410.864,58.000 411.000 C 58.220 411.136,58.400 410.887,58.400 410.447 C 58.400 410.007,58.220 409.536,58.000 409.400 C 57.780 409.264,57.600 409.513,57.600 409.953 " stroke="none" fill="#0c2c5c" fill-rule="evenodd"></path><path id="path2" d="M187.287 1.393 C 185.905 2.111,184.451 2.992,184.056 3.350 C 183.660 3.707,183.178 4.000,182.984 4.000 C 182.471 4.000,179.200 7.287,179.200 7.802 C 179.200 8.042,178.480 8.941,177.600 9.800 C 176.720 10.659,176.000 11.568,176.000 11.819 C 176.000 12.070,175.640 12.602,175.200 13.000 C 174.760 13.398,174.400 13.938,174.400 14.200 C 174.400 14.462,174.040 15.002,173.600 15.400 C 173.160 15.798,172.800 16.338,172.800 16.600 C 172.800 16.862,172.440 17.402,172.000 17.800 C 171.560 18.198,171.200 18.738,171.200 19.000 C 171.200 19.262,170.840 19.802,170.400 20.200 C 169.960 20.598,169.600 21.144,169.600 21.413 C 169.600 21.682,169.321 22.134,168.980 22.416 C 168.639 22.699,168.010 23.700,167.581 24.641 C 167.153 25.582,166.621 26.463,166.400 26.600 C 166.179 26.737,165.647 27.618,165.219 28.559 C 164.790 29.500,164.161 30.501,163.820 30.784 C 163.479 31.066,163.200 31.518,163.200 31.787 C 163.200 32.056,162.840 32.602,162.400 33.000 C 161.960 33.398,161.600 33.944,161.600 34.213 C 161.600 34.482,161.321 34.934,160.980 35.216 C 160.639 35.499,160.010 36.500,159.581 37.441 C 159.153 38.382,158.621 39.263,158.400 39.400 C 158.179 39.537,157.647 40.418,157.219 41.359 C 156.790 42.300,156.161 43.301,155.820 43.584 C 155.479 43.866,155.200 44.318,155.200 44.587 C 155.200 44.856,154.840 45.402,154.400 45.800 C 153.960 46.198,153.600 46.738,153.600 47.000 C 153.600 47.262,153.240 47.802,152.800 48.200 C 152.360 48.598,152.000 49.144,152.000 49.413 C 152.000 49.682,151.721 50.134,151.380 50.416 C 151.039 50.699,150.418 51.682,150.000 52.600 C 149.582 53.518,148.961 54.501,148.620 54.784 C 148.279 55.066,148.000 55.524,148.000 55.800 C 148.000 56.076,147.721 56.534,147.380 56.816 C 147.039 57.099,146.418 58.082,146.000 59.000 C 145.582 59.918,144.961 60.901,144.620 61.184 C 144.279 61.466,144.000 61.918,144.000 62.187 C 144.000 62.456,143.640 63.002,143.200 63.400 C 142.760 63.798,142.400 64.338,142.400 64.600 C 142.400 64.862,142.040 65.402,141.600 65.800 C 141.160 66.198,140.800 66.744,140.800 67.013 C 140.800 67.282,140.521 67.734,140.180 68.016 C 139.839 68.299,139.218 69.282,138.800 70.200 C 138.382 71.118,137.761 72.101,137.420 72.384 C 137.079 72.666,136.800 73.124,136.800 73.400 C 136.800 73.676,136.521 74.134,136.180 74.416 C 135.839 74.699,135.218 75.682,134.800 76.600 C 134.382 77.518,133.761 78.501,133.420 78.784 C 133.079 79.066,132.800 79.524,132.800 79.800 C 132.800 80.076,132.521 80.534,132.180 80.816 C 131.839 81.099,131.218 82.082,130.800 83.000 C 130.382 83.918,129.761 84.901,129.420 85.184 C 129.079 85.466,128.800 85.918,128.800 86.187 C 128.800 86.456,128.440 87.002,128.000 87.400 C 127.560 87.798,127.200 88.344,127.200 88.613 C 127.200 88.882,126.921 89.334,126.580 89.616 C 126.239 89.899,125.618 90.882,125.200 91.800 C 124.782 92.718,124.161 93.701,123.820 93.984 C 123.479 94.266,123.200 94.718,123.200 94.987 C 123.200 95.256,122.840 95.802,122.400 96.200 C 121.960 96.598,121.600 97.144,121.600 97.413 C 121.600 97.682,121.321 98.134,120.980 98.416 C 120.639 98.699,120.018 99.682,119.600 100.600 C 119.182 101.518,118.561 102.501,118.220 102.784 C 117.879 103.066,117.600 103.524,117.600 103.800 C 117.600 104.076,117.321 104.534,116.980 104.816 C 116.639 105.099,116.018 106.082,115.600 107.000 C 115.182 107.918,114.561 108.901,114.220 109.184 C 113.879 109.466,113.600 109.918,113.600 110.187 C 113.600 110.456,113.240 111.002,112.800 111.400 C 112.360 111.798,112.000 112.338,112.000 112.600 C 112.000 112.862,111.640 113.402,111.200 113.800 C 110.760 114.198,110.400 114.744,110.400 115.013 C 110.400 115.282,110.121 115.734,109.780 116.016 C 109.439 116.299,108.818 117.282,108.400 118.200 C 107.982 119.118,107.361 120.101,107.020 120.384 C 106.679 120.666,106.400 121.118,106.400 121.387 C 106.400 121.656,106.040 122.202,105.600 122.600 C 105.160 122.998,104.800 123.538,104.800 123.800 C 104.800 124.062,104.440 124.602,104.000 125.000 C 103.560 125.398,103.200 125.944,103.200 126.213 C 103.200 126.482,102.921 126.934,102.580 127.216 C 102.239 127.499,101.618 128.482,101.200 129.400 C 100.782 130.318,100.161 131.301,99.820 131.584 C 99.479 131.866,99.200 132.318,99.200 132.587 C 99.200 132.856,98.840 133.402,98.400 133.800 C 97.960 134.198,97.600 134.738,97.600 135.000 C 97.600 135.262,97.240 135.802,96.800 136.200 C 96.360 136.598,96.000 137.138,96.000 137.400 C 96.000 137.662,95.640 138.202,95.200 138.600 C 94.760 138.998,94.400 139.544,94.400 139.813 C 94.400 140.082,94.121 140.534,93.780 140.816 C 93.439 141.099,92.818 142.082,92.400 143.000 C 91.982 143.918,91.361 144.901,91.020 145.184 C 90.679 145.466,90.400 145.918,90.400 146.187 C 90.400 146.456,90.040 147.002,89.600 147.400 C 89.160 147.798,88.800 148.338,88.800 148.600 C 88.800 148.862,88.440 149.402,88.000 149.800 C 87.560 150.198,87.200 150.738,87.200 151.000 C 87.200 151.262,86.840 151.802,86.400 152.200 C 85.960 152.598,85.600 153.138,85.600 153.400 C 85.600 153.662,85.240 154.202,84.800 154.600 C 84.360 154.998,84.000 155.544,84.000 155.813 C 84.000 156.082,83.721 156.534,83.380 156.816 C 83.039 157.099,82.418 158.082,82.000 159.000 C 81.582 159.918,80.961 160.901,80.620 161.184 C 80.279 161.466,80.000 161.918,80.000 162.187 C 80.000 162.456,79.640 163.002,79.200 163.400 C 78.760 163.798,78.400 164.344,78.400 164.613 C 78.400 164.882,78.121 165.334,77.780 165.616 C 77.439 165.899,76.818 166.882,76.400 167.800 C 75.982 168.718,75.361 169.701,75.020 169.984 C 74.679 170.266,74.400 170.724,74.400 171.000 C 74.400 171.276,74.121 171.734,73.780 172.016 C 73.439 172.299,72.818 173.282,72.400 174.200 C 71.982 175.118,71.361 176.101,71.020 176.384 C 70.679 176.666,70.400 177.118,70.400 177.387 C 70.400 177.656,70.040 178.202,69.600 178.600 C 69.160 178.998,68.800 179.544,68.800 179.813 C 68.800 180.082,68.521 180.534,68.180 180.816 C 67.839 181.099,67.210 182.100,66.781 183.041 C 66.353 183.982,65.821 184.863,65.600 185.000 C 65.379 185.137,64.847 186.018,64.419 186.959 C 63.990 187.900,63.361 188.901,63.020 189.184 C 62.679 189.466,62.400 189.918,62.400 190.187 C 62.400 190.456,62.040 191.002,61.600 191.400 C 61.160 191.798,60.800 192.338,60.800 192.600 C 60.800 192.862,60.440 193.402,60.000 193.800 C 59.560 194.198,59.200 194.744,59.200 195.013 C 59.200 195.282,58.921 195.734,58.580 196.016 C 58.239 196.299,57.618 197.282,57.200 198.200 C 56.782 199.118,56.161 200.101,55.820 200.384 C 55.479 200.666,55.200 201.124,55.200 201.400 C 55.200 201.676,54.921 202.134,54.580 202.416 C 54.239 202.699,53.618 203.682,53.200 204.600 C 52.782 205.518,52.161 206.501,51.820 206.784 C 51.479 207.066,51.200 207.518,51.200 207.787 C 51.200 208.056,50.840 208.602,50.400 209.000 C 49.960 209.398,49.600 209.938,49.600 210.200 C 49.600 210.462,49.240 211.002,48.800 211.400 C 48.360 211.798,48.000 212.338,48.000 212.600 C 48.000 212.862,47.640 213.402,47.200 213.800 C 46.760 214.198,46.400 214.744,46.400 215.013 C 46.400 215.282,46.121 215.734,45.780 216.016 C 45.439 216.299,44.818 217.282,44.400 218.200 C 43.982 219.118,43.361 220.101,43.020 220.384 C 42.679 220.666,42.400 221.118,42.400 221.387 C 42.400 221.656,42.040 222.202,41.600 222.600 C 41.160 222.998,40.800 223.538,40.800 223.800 C 40.800 224.062,40.440 224.602,40.000 225.000 C 39.560 225.398,39.200 225.938,39.200 226.200 C 39.200 226.462,38.840 227.002,38.400 227.400 C 37.960 227.798,37.600 228.338,37.600 228.600 C 37.600 228.862,37.240 229.402,36.800 229.800 C 36.360 230.198,36.000 230.744,36.000 231.013 C 36.000 231.282,35.721 231.734,35.380 232.016 C 35.039 232.299,34.418 233.282,34.000 234.200 C 33.582 235.118,32.961 236.101,32.620 236.384 C 32.279 236.666,32.000 237.124,32.000 237.400 C 32.000 237.676,31.721 238.134,31.380 238.416 C 31.039 238.699,30.418 239.682,30.000 240.600 C 29.582 241.518,28.961 242.501,28.620 242.784 C 28.279 243.066,28.000 243.524,28.000 243.800 C 28.000 244.076,27.721 244.534,27.380 244.816 C 27.039 245.099,26.410 246.100,25.981 247.041 C 25.553 247.982,25.021 248.863,24.800 249.000 C 24.579 249.137,24.047 250.018,23.619 250.959 C 23.190 251.900,22.561 252.901,22.220 253.184 C 21.879 253.466,21.600 254.018,21.600 254.408 C 21.600 254.799,21.060 256.145,20.400 257.400 C 19.740 258.655,19.200 260.192,19.200 260.817 C 19.200 261.442,19.020 262.064,18.800 262.200 C 18.580 262.336,18.400 262.876,18.400 263.400 C 18.400 263.924,18.220 264.464,18.000 264.600 C 17.780 264.736,17.600 265.276,17.600 265.800 C 17.600 266.324,17.420 266.864,17.200 267.000 C 16.980 267.136,16.800 268.396,16.800 269.800 C 16.800 271.204,16.620 272.464,16.400 272.600 C 15.865 272.931,15.865 285.069,16.400 285.400 C 16.620 285.536,16.800 286.436,16.800 287.400 C 16.800 288.364,16.980 289.264,17.200 289.400 C 17.420 289.536,17.600 290.256,17.600 291.000 C 17.600 291.744,17.780 292.464,18.000 292.600 C 18.220 292.736,18.400 293.456,18.400 294.200 C 18.400 294.944,18.580 295.664,18.800 295.800 C 19.020 295.936,19.200 296.656,19.200 297.400 C 19.200 298.144,19.380 298.864,19.600 299.000 C 19.820 299.136,20.000 299.856,20.000 300.600 C 20.000 301.344,20.180 302.064,20.400 302.200 C 20.620 302.336,20.800 303.056,20.800 303.800 C 20.800 304.544,20.980 305.264,21.200 305.400 C 21.420 305.536,21.600 306.076,21.600 306.600 C 21.600 307.124,21.780 307.664,22.000 307.800 C 22.220 307.936,22.400 308.378,22.400 308.783 C 22.400 309.188,22.940 310.545,23.600 311.800 C 24.260 313.055,24.800 314.412,24.800 314.817 C 24.800 315.222,24.980 315.664,25.200 315.800 C 25.420 315.936,25.600 316.476,25.600 317.000 C 25.600 317.524,25.780 318.064,26.000 318.200 C 26.220 318.336,26.400 318.876,26.400 319.400 C 26.400 319.924,26.580 320.464,26.800 320.600 C 27.020 320.736,27.200 321.276,27.200 321.800 C 27.200 322.324,27.380 322.864,27.600 323.000 C 27.820 323.136,28.000 323.591,28.000 324.011 C 28.000 324.432,28.360 325.417,28.800 326.200 C 29.240 326.983,29.600 327.883,29.600 328.200 C 29.600 328.517,29.960 329.417,30.400 330.200 C 30.840 330.983,31.200 331.968,31.200 332.389 C 31.200 332.809,31.380 333.264,31.600 333.400 C 31.820 333.536,32.000 334.076,32.000 334.600 C 32.000 335.124,32.180 335.664,32.400 335.800 C 32.620 335.936,32.800 336.476,32.800 337.000 C 32.800 337.524,32.980 338.064,33.200 338.200 C 33.420 338.336,33.600 338.876,33.600 339.400 C 33.600 339.924,33.780 340.464,34.000 340.600 C 34.220 340.736,34.400 341.191,34.400 341.611 C 34.400 342.032,34.760 343.017,35.200 343.800 C 35.640 344.583,36.000 345.568,36.000 345.989 C 36.000 346.409,36.180 346.864,36.400 347.000 C 36.620 347.136,36.800 347.591,36.800 348.011 C 36.800 348.432,37.160 349.417,37.600 350.200 C 38.040 350.983,38.400 351.968,38.400 352.389 C 38.400 352.809,38.580 353.264,38.800 353.400 C 39.020 353.536,39.200 354.076,39.200 354.600 C 39.200 355.124,39.380 355.664,39.600 355.800 C 39.820 355.936,40.000 356.391,40.000 356.811 C 40.000 357.232,40.360 358.217,40.800 359.000 C 41.240 359.783,41.600 360.948,41.600 361.589 C 41.600 362.229,41.780 362.864,42.000 363.000 C 42.220 363.136,42.400 363.591,42.400 364.011 C 42.400 364.432,42.760 365.417,43.200 366.200 C 43.640 366.983,44.000 367.968,44.000 368.389 C 44.000 368.809,44.180 369.264,44.400 369.400 C 44.620 369.536,44.800 370.076,44.800 370.600 C 44.800 371.124,44.980 371.664,45.200 371.800 C 45.420 371.936,45.600 372.476,45.600 373.000 C 45.600 373.524,45.780 374.064,46.000 374.200 C 46.220 374.336,46.400 374.791,46.400 375.211 C 46.400 375.632,46.760 376.617,47.200 377.400 C 47.640 378.183,48.000 379.263,48.000 379.800 C 48.000 380.337,48.360 381.417,48.800 382.200 C 49.240 382.983,49.600 383.968,49.600 384.389 C 49.600 384.809,49.780 385.264,50.000 385.400 C 50.220 385.536,50.400 386.076,50.400 386.600 C 50.400 387.124,50.580 387.664,50.800 387.800 C 51.020 387.936,51.200 388.476,51.200 389.000 C 51.200 389.524,51.380 390.064,51.600 390.200 C 51.820 390.336,52.000 390.876,52.000 391.400 C 52.000 391.924,52.180 392.464,52.400 392.600 C 52.620 392.736,52.800 393.276,52.800 393.800 C 52.800 394.324,52.980 394.864,53.200 395.000 C 53.420 395.136,53.600 395.676,53.600 396.200 C 53.600 396.724,53.780 397.264,54.000 397.400 C 54.220 397.536,54.400 398.076,54.400 398.600 C 54.400 399.124,54.580 399.664,54.800 399.800 C 55.020 399.936,55.200 400.476,55.200 401.000 C 55.200 401.524,55.380 402.064,55.600 402.200 C 55.820 402.336,56.000 402.876,56.000 403.400 C 56.000 403.924,56.180 404.464,56.400 404.600 C 56.620 404.736,56.800 405.276,56.800 405.800 C 56.800 406.324,56.980 406.864,57.200 407.000 C 57.420 407.136,57.600 407.676,57.600 408.200 C 57.600 408.724,57.780 409.264,58.000 409.400 C 58.220 409.536,58.400 410.076,58.400 410.600 C 58.400 411.124,58.580 411.664,58.800 411.800 C 59.020 411.936,59.200 412.476,59.200 413.000 C 59.200 413.524,59.380 414.064,59.600 414.200 C 59.820 414.336,60.000 414.876,60.000 415.400 C 60.000 415.924,60.180 416.464,60.400 416.600 C 60.620 416.736,60.800 417.276,60.800 417.800 C 60.800 418.324,60.980 418.864,61.200 419.000 C 61.420 419.136,61.600 419.676,61.600 420.200 C 61.600 420.724,61.780 421.264,62.000 421.400 C 62.220 421.536,62.400 422.256,62.400 423.000 C 62.400 423.744,62.580 424.464,62.800 424.600 C 63.020 424.736,63.200 425.191,63.200 425.611 C 63.200 426.032,63.560 427.017,64.000 427.800 C 64.440 428.583,64.800 429.568,64.800 429.989 C 64.800 430.409,64.980 430.864,65.200 431.000 C 65.420 431.136,65.600 431.771,65.600 432.411 C 65.600 433.052,65.960 434.217,66.400 435.000 C 66.840 435.783,67.200 436.768,67.200 437.189 C 67.200 437.609,67.380 438.064,67.600 438.200 C 67.820 438.336,68.000 439.056,68.000 439.800 C 68.000 440.544,68.180 441.264,68.400 441.400 C 68.620 441.536,68.800 441.978,68.800 442.383 C 68.800 442.788,69.340 444.145,70.000 445.400 C 70.660 446.655,71.200 448.107,71.200 448.628 C 71.200 449.149,71.560 450.217,72.000 451.000 C 72.440 451.783,72.800 452.948,72.800 453.589 C 72.800 454.229,72.980 454.864,73.200 455.000 C 73.420 455.136,73.600 455.676,73.600 456.200 C 73.600 456.724,73.780 457.264,74.000 457.400 C 74.220 457.536,74.400 458.076,74.400 458.600 C 74.400 459.124,74.580 459.664,74.800 459.800 C 75.020 459.936,75.200 460.391,75.200 460.811 C 75.200 461.232,75.560 462.217,76.000 463.000 C 76.440 463.783,76.800 464.768,76.800 465.189 C 76.800 465.609,76.980 466.064,77.200 466.200 C 77.420 466.336,77.600 467.056,77.600 467.800 C 77.600 468.544,77.780 469.264,78.000 469.400 C 78.220 469.536,78.400 470.076,78.400 470.600 C 78.400 471.124,78.580 471.664,78.800 471.800 C 79.020 471.936,79.200 472.476,79.200 473.000 C 79.200 473.524,79.380 474.064,79.600 474.200 C 79.820 474.336,80.000 474.876,80.000 475.400 C 80.000 475.924,80.180 476.464,80.400 476.600 C 80.620 476.736,80.800 477.191,80.800 477.611 C 80.800 478.032,81.160 479.017,81.600 479.800 C 82.040 480.583,82.400 481.568,82.400 481.989 C 82.400 482.409,82.580 482.864,82.800 483.000 C 83.020 483.136,83.200 483.856,83.200 484.600 C 83.200 485.344,83.380 486.064,83.600 486.200 C 83.820 486.336,84.000 486.761,84.000 487.145 C 84.000 488.042,85.861 491.787,86.619 492.416 C 86.939 492.681,87.200 493.111,87.200 493.371 C 87.200 493.943,89.673 496.400,90.249 496.400 C 90.475 496.400,91.088 496.855,91.610 497.410 C 92.699 498.570,94.594 499.600,95.638 499.600 C 96.031 499.600,96.464 499.780,96.600 500.000 C 96.736 500.220,97.276 500.400,97.800 500.400 C 98.324 500.400,98.864 500.580,99.000 500.800 C 99.136 501.020,100.036 501.200,101.000 501.200 C 101.964 501.200,102.864 501.380,103.000 501.600 C 103.343 502.154,300.657 502.154,301.000 501.600 C 301.136 501.380,302.216 501.200,303.400 501.200 C 304.584 501.200,305.664 501.020,305.800 500.800 C 305.936 500.580,306.476 500.400,307.000 500.400 C 307.524 500.400,308.064 500.220,308.200 500.000 C 308.336 499.780,308.859 499.600,309.362 499.600 C 309.865 499.600,310.602 499.240,311.000 498.800 C 311.398 498.360,311.927 498.000,312.175 498.000 C 313.826 498.000,320.000 489.438,320.000 487.147 C 320.000 486.762,320.180 486.336,320.400 486.200 C 320.620 486.064,320.800 485.524,320.800 485.000 C 320.800 484.476,320.980 483.936,321.200 483.800 C 321.420 483.664,321.600 483.124,321.600 482.600 C 321.600 482.076,321.780 481.536,322.000 481.400 C 322.220 481.264,322.400 480.724,322.400 480.200 C 322.400 479.676,322.580 479.136,322.800 479.000 C 323.020 478.864,323.200 478.161,323.200 477.438 C 323.200 476.632,323.509 475.844,324.000 475.400 C 324.440 475.002,324.800 474.169,324.800 473.550 C 324.800 472.931,325.160 471.783,325.600 471.000 C 326.040 470.217,326.400 469.137,326.400 468.600 C 326.400 468.063,326.760 466.983,327.200 466.200 C 327.640 465.417,328.000 464.432,328.000 464.011 C 328.000 463.591,328.180 463.136,328.400 463.000 C 328.620 462.864,328.800 462.242,328.800 461.617 C 328.800 460.992,329.340 459.455,330.000 458.200 C 330.660 456.945,331.200 455.408,331.200 454.783 C 331.200 454.158,331.380 453.536,331.600 453.400 C 331.820 453.264,332.000 452.724,332.000 452.200 C 332.000 451.676,332.180 451.136,332.400 451.000 C 332.620 450.864,332.800 450.324,332.800 449.800 C 332.800 449.276,332.980 448.736,333.200 448.600 C 333.420 448.464,333.600 447.924,333.600 447.400 C 333.600 446.876,333.780 446.336,334.000 446.200 C 334.220 446.064,334.400 445.524,334.400 445.000 C 334.400 444.476,334.580 443.936,334.800 443.800 C 335.020 443.664,335.200 442.961,335.200 442.238 C 335.200 441.432,335.509 440.644,336.000 440.200 C 336.440 439.802,336.800 439.065,336.800 438.562 C 336.800 438.059,336.980 437.536,337.200 437.400 C 337.420 437.264,337.600 436.724,337.600 436.200 C 337.600 435.676,337.780 435.136,338.000 435.000 C 338.220 434.864,338.400 434.324,338.400 433.800 C 338.400 433.276,338.580 432.736,338.800 432.600 C 339.020 432.464,339.200 431.924,339.200 431.400 C 339.200 430.876,339.380 430.336,339.600 430.200 C 339.820 430.064,340.000 429.524,340.000 429.000 C 340.000 428.476,340.180 427.936,340.400 427.800 C 340.620 427.664,340.800 427.042,340.800 426.417 C 340.800 425.792,341.340 424.255,342.000 423.000 C 342.660 421.745,343.200 420.208,343.200 419.583 C 343.200 418.958,343.380 418.336,343.600 418.200 C 343.820 418.064,344.000 417.524,344.000 417.000 C 344.000 416.476,344.180 415.936,344.400 415.800 C 344.620 415.664,344.800 415.124,344.800 414.600 C 344.800 414.076,344.980 413.536,345.200 413.400 C 345.420 413.264,345.600 412.724,345.600 412.200 C 345.600 411.676,345.780 411.136,346.000 411.000 C 346.220 410.864,346.400 410.409,346.400 409.989 C 346.400 409.568,346.760 408.583,347.200 407.800 C 347.640 407.017,348.000 406.032,348.000 405.611 C 348.000 405.191,348.180 404.736,348.400 404.600 C 348.620 404.464,348.800 403.924,348.800 403.400 C 348.800 402.876,348.980 402.336,349.200 402.200 C 349.420 402.064,349.600 401.524,349.600 401.000 C 349.600 400.476,349.780 399.936,350.000 399.800 C 350.220 399.664,350.400 399.124,350.400 398.600 C 350.400 398.076,350.580 397.536,350.800 397.400 C 351.020 397.264,351.200 396.724,351.200 396.200 C 351.200 395.676,351.380 395.136,351.600 395.000 C 351.820 394.864,352.000 394.409,352.000 393.989 C 352.000 393.568,352.360 392.583,352.800 391.800 C 353.240 391.017,353.600 390.032,353.600 389.611 C 353.600 389.191,353.780 388.736,354.000 388.600 C 354.220 388.464,354.400 387.924,354.400 387.400 C 354.400 386.876,354.580 386.336,354.800 386.200 C 355.020 386.064,355.200 385.344,355.200 384.600 C 355.200 383.856,355.380 383.136,355.600 383.000 C 355.820 382.864,356.000 382.324,356.000 381.800 C 356.000 381.276,356.180 380.736,356.400 380.600 C 356.620 380.464,356.800 379.924,356.800 379.400 C 356.800 378.876,356.980 378.336,357.200 378.200 C 357.420 378.064,357.600 377.524,357.600 377.000 C 357.600 376.476,357.780 375.936,358.000 375.800 C 358.220 375.664,358.400 375.209,358.400 374.789 C 358.400 374.368,358.760 373.383,359.200 372.600 C 359.640 371.817,360.000 370.832,360.000 370.411 C 360.000 369.991,360.180 369.536,360.400 369.400 C 360.620 369.264,360.800 368.724,360.800 368.200 C 360.800 367.676,360.980 367.136,361.200 367.000 C 361.420 366.864,361.600 366.409,361.600 365.989 C 361.600 365.568,361.960 364.583,362.400 363.800 C 362.840 363.017,363.200 361.852,363.200 361.211 C 363.200 360.571,363.380 359.936,363.600 359.800 C 363.820 359.664,364.000 359.209,364.000 358.789 C 364.000 358.368,364.360 357.383,364.800 356.600 C 365.240 355.817,365.600 354.832,365.600 354.411 C 365.600 353.991,365.780 353.536,366.000 353.400 C 366.220 353.264,366.400 352.724,366.400 352.200 C 366.400 351.676,366.580 351.136,366.800 351.000 C 367.020 350.864,367.200 350.409,367.200 349.989 C 367.200 349.568,367.560 348.583,368.000 347.800 C 368.440 347.017,368.800 345.852,368.800 345.211 C 368.800 344.571,368.980 343.936,369.200 343.800 C 369.420 343.664,369.600 343.209,369.600 342.789 C 369.600 342.368,369.960 341.383,370.400 340.600 C 370.840 339.817,371.200 338.832,371.200 338.411 C 371.200 337.991,371.380 337.536,371.600 337.400 C 371.820 337.264,372.000 336.724,372.000 336.200 C 372.000 335.676,372.180 335.136,372.400 335.000 C 372.620 334.864,372.800 334.324,372.800 333.800 C 372.800 333.276,372.980 332.736,373.200 332.600 C 373.420 332.464,373.600 331.924,373.600 331.400 C 373.600 330.876,373.780 330.336,374.000 330.200 C 374.220 330.064,374.400 329.524,374.400 329.000 C 374.400 328.476,374.580 327.936,374.800 327.800 C 375.020 327.664,375.200 327.124,375.200 326.600 C 375.200 326.076,375.380 325.536,375.600 325.400 C 375.820 325.264,376.000 324.809,376.000 324.389 C 376.000 323.968,376.360 322.983,376.800 322.200 C 377.240 321.417,377.600 320.432,377.600 320.011 C 377.600 319.591,377.780 319.136,378.000 319.000 C 378.220 318.864,378.400 318.324,378.400 317.800 C 378.400 317.276,378.580 316.736,378.800 316.600 C 379.020 316.464,379.200 315.924,379.200 315.400 C 379.200 314.876,379.380 314.336,379.600 314.200 C 379.820 314.064,380.000 313.524,380.000 313.000 C 380.000 312.476,380.180 311.936,380.400 311.800 C 380.620 311.664,380.800 311.042,380.800 310.417 C 380.800 309.792,381.340 308.255,382.000 307.000 C 382.660 305.745,383.200 304.208,383.200 303.583 C 383.200 302.958,383.380 302.336,383.600 302.200 C 383.820 302.064,384.000 301.524,384.000 301.000 C 384.000 300.476,384.180 299.936,384.400 299.800 C 384.620 299.664,384.800 299.124,384.800 298.600 C 384.800 298.076,384.980 297.536,385.200 297.400 C 385.420 297.264,385.600 296.724,385.600 296.200 C 385.600 295.676,385.780 295.136,386.000 295.000 C 386.220 294.864,386.400 294.144,386.400 293.400 C 386.400 292.656,386.580 291.936,386.800 291.800 C 387.020 291.664,387.200 290.601,387.200 289.438 C 387.200 287.832,387.392 287.150,388.000 286.600 C 388.736 285.934,388.800 285.368,388.800 279.550 C 388.800 273.966,388.706 273.057,388.000 271.800 C 387.502 270.913,387.200 269.634,387.200 268.411 C 387.200 267.331,387.020 266.336,386.800 266.200 C 386.580 266.064,386.400 265.344,386.400 264.600 C 386.400 263.856,386.220 263.136,386.000 263.000 C 385.780 262.864,385.600 262.324,385.600 261.800 C 385.600 261.276,385.420 260.736,385.200 260.600 C 384.980 260.464,384.800 259.924,384.800 259.400 C 384.800 258.876,384.620 258.336,384.400 258.200 C 384.180 258.064,384.000 257.631,384.000 257.238 C 384.000 256.326,382.961 254.232,382.192 253.593 C 381.866 253.323,381.600 252.696,381.600 252.200 C 381.600 251.704,381.328 251.072,380.995 250.796 C 380.662 250.520,379.855 249.172,379.200 247.800 C 378.545 246.428,377.738 245.080,377.405 244.804 C 377.072 244.528,376.800 244.082,376.800 243.813 C 376.800 243.544,376.440 242.998,376.000 242.600 C 375.560 242.202,375.200 241.662,375.200 241.400 C 375.200 241.138,374.840 240.598,374.400 240.200 C 373.960 239.802,373.600 239.076,373.600 238.587 C 373.600 238.098,373.321 237.466,372.980 237.184 C 372.639 236.901,372.018 235.918,371.600 235.000 C 371.182 234.082,370.561 233.099,370.220 232.816 C 369.879 232.534,369.600 232.082,369.600 231.813 C 369.600 231.544,369.240 230.998,368.800 230.600 C 368.360 230.202,368.000 229.656,368.000 229.387 C 368.000 229.118,367.721 228.666,367.380 228.384 C 367.039 228.101,366.418 227.118,366.000 226.200 C 365.582 225.282,364.961 224.299,364.620 224.016 C 364.279 223.734,364.000 223.282,364.000 223.013 C 364.000 222.744,363.640 222.198,363.200 221.800 C 362.760 221.402,362.400 220.856,362.400 220.587 C 362.400 220.318,362.121 219.866,361.780 219.584 C 361.439 219.301,360.818 218.318,360.400 217.400 C 359.982 216.482,359.361 215.499,359.020 215.216 C 358.679 214.934,358.400 214.482,358.400 214.213 C 358.400 213.944,358.040 213.398,357.600 213.000 C 357.160 212.602,356.800 212.062,356.800 211.800 C 356.800 211.538,356.440 210.998,356.000 210.600 C 355.560 210.202,355.200 209.662,355.200 209.400 C 355.200 209.138,354.840 208.598,354.400 208.200 C 353.960 207.802,353.600 207.262,353.600 207.000 C 353.600 206.738,353.240 206.198,352.800 205.800 C 352.360 205.402,352.000 204.856,352.000 204.587 C 352.000 204.318,351.721 203.866,351.380 203.584 C 351.039 203.301,350.425 202.334,350.015 201.435 C 349.604 200.536,348.803 199.364,348.234 198.830 C 347.665 198.297,347.200 197.650,347.200 197.392 C 347.200 197.135,346.840 196.598,346.400 196.200 C 345.960 195.802,345.600 195.262,345.600 195.000 C 345.600 194.738,345.240 194.198,344.800 193.800 C 344.360 193.402,344.000 192.862,344.000 192.600 C 344.000 192.338,343.640 191.798,343.200 191.400 C 342.760 191.002,342.400 190.462,342.400 190.200 C 342.400 189.938,342.040 189.398,341.600 189.000 C 341.160 188.602,340.800 188.062,340.800 187.800 C 340.800 187.538,340.440 186.998,340.000 186.600 C 339.560 186.202,339.200 185.656,339.200 185.387 C 339.200 185.118,338.921 184.666,338.580 184.384 C 338.239 184.101,337.618 183.118,337.200 182.200 C 336.782 181.282,336.161 180.299,335.820 180.016 C 335.479 179.734,335.200 179.282,335.200 179.013 C 335.200 178.744,334.840 178.198,334.400 177.800 C 333.960 177.402,333.600 176.862,333.600 176.600 C 333.600 176.338,333.240 175.798,332.800 175.400 C 332.360 175.002,332.000 174.462,332.000 174.200 C 332.000 173.938,331.640 173.398,331.200 173.000 C 330.760 172.602,330.400 172.056,330.400 171.787 C 330.400 171.518,330.121 171.066,329.780 170.784 C 329.439 170.501,328.818 169.518,328.400 168.600 C 327.982 167.682,327.361 166.699,327.020 166.416 C 326.679 166.134,326.400 165.682,326.400 165.413 C 326.400 165.144,326.040 164.598,325.600 164.200 C 325.160 163.802,324.800 163.256,324.800 162.987 C 324.800 162.718,324.521 162.266,324.180 161.984 C 323.839 161.701,323.218 160.718,322.800 159.800 C 322.382 158.882,321.761 157.899,321.420 157.616 C 321.079 157.334,320.800 156.882,320.800 156.613 C 320.800 156.344,320.440 155.798,320.000 155.400 C 319.560 155.002,319.200 154.462,319.200 154.200 C 319.200 153.938,318.840 153.398,318.400 153.000 C 317.960 152.602,317.600 152.056,317.600 151.787 C 317.600 151.518,317.321 151.066,316.980 150.784 C 316.639 150.501,316.018 149.518,315.600 148.600 C 315.182 147.682,314.561 146.699,314.220 146.416 C 313.879 146.134,313.600 145.682,313.600 145.413 C 313.600 145.144,313.240 144.598,312.800 144.200 C 312.360 143.802,312.000 143.262,312.000 143.000 C 312.000 142.738,311.640 142.198,311.200 141.800 C 310.760 141.402,310.400 140.856,310.400 140.587 C 310.400 140.318,310.121 139.866,309.780 139.584 C 309.439 139.301,308.818 138.318,308.400 137.400 C 307.982 136.482,307.361 135.499,307.020 135.216 C 306.679 134.934,306.400 134.476,306.400 134.200 C 306.400 133.924,306.121 133.466,305.780 133.184 C 305.439 132.901,304.818 131.918,304.400 131.000 C 303.982 130.082,303.361 129.099,303.020 128.816 C 302.679 128.534,302.400 128.082,302.400 127.813 C 302.400 127.544,302.040 126.998,301.600 126.600 C 301.160 126.202,300.800 125.656,300.800 125.387 C 300.800 125.118,300.521 124.666,300.180 124.384 C 299.839 124.101,299.218 123.118,298.800 122.200 C 298.382 121.282,297.761 120.299,297.420 120.016 C 297.079 119.734,296.800 119.276,296.800 119.000 C 296.800 118.724,296.521 118.266,296.180 117.984 C 295.839 117.701,295.218 116.718,294.800 115.800 C 294.382 114.882,293.761 113.899,293.420 113.616 C 293.079 113.334,292.800 112.882,292.800 112.613 C 292.800 112.344,292.440 111.798,292.000 111.400 C 291.560 111.002,291.200 110.456,291.200 110.187 C 291.200 109.918,290.921 109.466,290.580 109.184 C 290.239 108.901,289.618 107.918,289.200 107.000 C 288.782 106.082,288.161 105.099,287.820 104.816 C 287.479 104.534,287.200 104.082,287.200 103.813 C 287.200 103.544,286.840 102.998,286.400 102.600 C 285.960 102.202,285.600 101.656,285.600 101.387 C 285.600 101.118,285.321 100.666,284.980 100.384 C 284.639 100.101,284.018 99.118,283.600 98.200 C 283.182 97.282,282.561 96.299,282.220 96.016 C 281.879 95.734,281.600 95.276,281.600 95.000 C 281.600 94.724,281.321 94.266,280.980 93.984 C 280.639 93.701,280.018 92.718,279.600 91.800 C 279.182 90.882,278.561 89.899,278.220 89.616 C 277.879 89.334,277.600 88.882,277.600 88.613 C 277.600 88.344,277.240 87.798,276.800 87.400 C 276.360 87.002,276.000 86.462,276.000 86.200 C 276.000 85.938,275.640 85.398,275.200 85.000 C 274.760 84.602,274.400 84.056,274.400 83.787 C 274.400 83.518,274.121 83.066,273.780 82.784 C 273.439 82.501,272.818 81.518,272.400 80.600 C 271.982 79.682,271.361 78.699,271.020 78.416 C 270.679 78.134,270.400 77.682,270.400 77.413 C 270.400 77.144,270.040 76.598,269.600 76.200 C 269.160 75.802,268.800 75.256,268.800 74.987 C 268.800 74.718,268.521 74.266,268.180 73.984 C 267.839 73.701,267.218 72.718,266.800 71.800 C 266.382 70.882,265.761 69.899,265.420 69.616 C 265.079 69.334,264.800 68.882,264.800 68.613 C 264.800 68.344,264.440 67.798,264.000 67.400 C 263.560 67.002,263.200 66.462,263.200 66.200 C 263.200 65.938,262.840 65.398,262.400 65.000 C 261.960 64.602,261.600 64.062,261.600 63.800 C 261.600 63.538,261.240 62.998,260.800 62.600 C 260.360 62.202,260.000 61.656,260.000 61.387 C 260.000 61.118,259.721 60.666,259.380 60.384 C 259.039 60.101,258.418 59.118,258.000 58.200 C 257.582 57.282,256.961 56.299,256.620 56.016 C 256.279 55.734,256.000 55.276,256.000 55.000 C 256.000 54.724,255.721 54.266,255.380 53.984 C 255.039 53.701,254.410 52.700,253.981 51.759 C 253.553 50.818,253.021 49.937,252.800 49.800 C 252.579 49.663,252.047 48.782,251.619 47.841 C 251.190 46.900,250.561 45.899,250.220 45.616 C 249.879 45.334,249.600 44.882,249.600 44.613 C 249.600 44.344,249.240 43.798,248.800 43.400 C 248.360 43.002,248.000 42.456,248.000 42.187 C 248.000 41.918,247.721 41.466,247.380 41.184 C 247.039 40.901,246.418 39.918,246.000 39.000 C 245.582 38.082,244.961 37.099,244.620 36.816 C 244.279 36.534,244.000 36.082,244.000 35.813 C 244.000 35.544,243.640 34.998,243.200 34.600 C 242.760 34.202,242.400 33.656,242.400 33.387 C 242.400 33.118,242.121 32.666,241.780 32.384 C 241.439 32.101,240.818 31.118,240.400 30.200 C 239.982 29.282,239.361 28.299,239.020 28.016 C 238.679 27.734,238.400 27.276,238.400 27.000 C 238.400 26.724,238.121 26.266,237.780 25.984 C 237.439 25.701,236.818 24.718,236.400 23.800 C 235.982 22.882,235.361 21.899,235.020 21.616 C 234.679 21.334,234.400 20.876,234.400 20.600 C 234.400 20.324,234.121 19.866,233.780 19.584 C 233.439 19.301,232.825 18.334,232.415 17.435 C 232.004 16.536,231.203 15.364,230.634 14.830 C 230.065 14.297,229.600 13.650,229.600 13.392 C 229.600 13.135,229.240 12.598,228.800 12.200 C 228.360 11.802,228.000 11.268,228.000 11.013 C 228.000 10.758,227.460 10.032,226.800 9.400 C 226.140 8.768,225.600 8.014,225.600 7.725 C 225.600 7.436,225.368 7.200,225.085 7.200 C 224.802 7.200,223.683 6.300,222.600 5.200 C 221.517 4.100,220.420 3.200,220.164 3.200 C 219.908 3.200,219.477 2.934,219.207 2.608 C 218.568 1.839,216.474 0.800,215.562 0.800 C 215.169 0.800,214.736 0.620,214.600 0.400 C 214.443 0.146,209.876 0.016,202.076 0.043 L 189.800 0.086 187.287 1.393 M205.214 63.597 C 210.053 64.942,216.130 72.956,217.912 80.343 C 218.290 81.911,218.800 83.196,219.044 83.197 C 220.868 83.209,223.892 87.139,232.333 100.473 C 247.324 124.151,282.763 179.859,289.288 190.000 C 330.863 254.622,338.677 267.155,340.921 272.815 C 343.446 279.184,343.195 283.572,339.746 293.400 C 338.974 295.600,334.864 307.480,330.612 319.800 C 326.361 332.120,322.342 343.730,321.680 345.600 C 314.994 364.500,306.550 388.840,293.300 427.400 C 283.095 457.097,283.336 456.579,278.617 458.993 L 276.257 460.200 244.429 460.317 C 206.397 460.456,207.504 460.598,206.390 455.440 C 205.523 451.422,206.046 345.470,206.946 342.800 C 208.070 339.467,209.037 337.738,211.977 333.800 C 215.380 329.243,215.991 328.164,214.947 328.566 C 210.196 330.391,198.683 330.789,193.537 329.306 C 167.894 321.915,161.250 291.455,181.287 273.143 C 183.281 271.320,185.202 269.192,185.556 268.414 C 186.140 267.131,186.219 258.360,186.400 174.000 L 186.600 81.000 187.680 78.042 C 191.559 67.419,198.471 61.724,205.214 63.597 " stroke="none" fill="#fbbc0c" fill-rule="evenodd"></path></g></svg>