<svg id="svg" version="1.1" xmlns="http://www.w3.org/2000/svg" xmlns:xlink="http://www.w3.org/1999/xlink" width="400" height="507.25552050473186" viewBox="0, 0, 400,507.25552050473186"><g id="svgg"><path id="path0" d="M348.107 106.803 C 319.825 135.184,296.081 158.779,295.343 159.235 C 292.603 160.929,293.504 163.228,302.078 176.422 C 326.031 213.282,325.993 213.083,314.989 244.805 C 303.865 276.875,295.381 301.486,289.412 319.000 C 275.976 358.424,276.446 357.161,273.631 361.431 C 271.166 365.169,271.168 364.716,273.610 367.650 C 277.334 372.125,277.958 373.908,280.176 386.420 C 280.938 390.721,282.208 397.201,282.996 400.820 C 286.554 417.140,290.901 437.280,291.496 440.200 C 294.556 455.217,287.579 467.649,274.160 471.092 C 269.936 472.176,132.912 472.189,128.700 471.106 C 119.239 468.673,112.345 460.558,111.217 450.529 C 110.791 446.737,111.227 442.830,112.995 434.600 C 113.799 430.860,116.165 419.880,118.254 410.200 C 120.343 400.520,122.677 389.270,123.441 385.200 C 125.514 374.153,126.670 371.269,130.677 367.147 C 132.746 365.018,132.751 365.051,129.783 361.200 C 127.398 358.107,127.197 357.636,123.204 345.812 C 119.200 333.956,118.535 332.435,116.810 331.207 L 115.602 330.347 57.805 388.274 L 0.007 446.200 0.003 476.700 L 0.000 507.200 200.000 507.200 L 400.000 507.200 400.000 281.200 C 400.000 156.900,399.894 55.200,399.765 55.200 C 399.635 55.200,376.390 78.421,348.107 106.803 M213.052 87.700 C 212.919 88.195,212.812 115.690,212.814 148.800 C 212.818 217.606,212.394 210.326,216.666 214.940 C 227.771 226.936,225.799 242.554,212.117 250.966 C 209.093 252.826,205.539 259.156,204.802 264.000 C 204.298 267.309,204.280 334.799,204.782 336.965 C 205.832 341.490,206.910 341.674,231.504 341.521 L 251.000 341.400 253.249 340.296 C 256.900 338.503,257.457 337.428,262.733 322.000 C 264.501 316.830,267.505 308.100,269.410 302.600 C 271.314 297.100,273.831 289.810,275.003 286.400 C 276.175 282.990,278.244 277.050,279.600 273.200 C 288.302 248.495,296.454 224.354,296.837 222.154 C 298.013 215.405,297.822 215.049,268.809 169.800 C 261.615 158.580,248.302 137.700,239.226 123.400 C 216.526 87.638,217.475 89.044,215.037 87.557 C 213.468 86.600,213.344 86.609,213.052 87.700 " stroke="none" fill="#e3e3db" fill-rule="evenodd"></path><path id="path1" d="M198.294 33.635 C 192.243 35.061,191.007 36.483,178.174 56.800 C 169.787 70.078,163.347 80.263,150.604 100.400 C 147.332 105.570,140.517 116.190,135.460 124.000 C 130.403 131.810,122.456 144.230,117.801 151.600 C 113.146 158.970,104.660 172.290,98.943 181.200 C 82.189 207.309,81.600 208.555,81.600 217.881 C 81.600 225.080,82.681 229.045,90.463 250.400 C 105.464 291.565,116.114 323.877,115.938 327.689 C 115.816 330.336,115.864 330.511,116.919 331.279 C 118.540 332.460,119.249 334.101,123.200 345.800 C 127.122 357.415,127.532 358.362,130.066 361.653 C 131.020 362.892,131.980 364.210,132.200 364.581 C 132.551 365.175,132.747 365.193,133.800 364.729 C 135.685 363.898,265.350 363.740,268.900 364.564 C 270.300 364.889,271.457 364.985,271.530 364.782 C 271.602 364.583,272.560 363.054,273.661 361.385 C 276.441 357.168,275.994 358.372,289.412 319.000 C 295.381 301.486,303.865 276.875,314.989 244.805 C 325.993 213.083,326.031 213.282,302.078 176.422 C 295.571 166.408,294.000 163.467,294.000 161.295 C 294.000 160.400,293.689 160.051,292.300 159.388 C 290.097 158.338,287.525 154.478,258.320 108.400 C 256.019 104.770,247.565 91.450,239.532 78.800 C 231.500 66.150,222.892 52.582,220.404 48.649 C 211.675 34.849,206.901 31.607,198.294 33.635 M204.913 72.540 C 206.765 73.317,208.978 75.765,210.556 78.781 C 211.794 81.148,212.219 82.365,212.955 85.649 C 213.105 86.318,213.625 86.879,214.391 87.196 C 216.965 88.263,216.413 87.457,239.226 123.400 C 248.303 137.700,261.615 158.580,268.809 169.800 C 297.822 215.049,298.013 215.405,296.837 222.154 C 296.454 224.354,288.302 248.495,279.600 273.200 C 278.244 277.050,276.175 282.990,275.003 286.400 C 273.831 289.810,271.314 297.100,269.410 302.600 C 267.505 308.100,264.501 316.830,262.733 322.000 C 257.457 337.428,256.900 338.503,253.249 340.296 L 251.000 341.400 231.504 341.521 C 206.910 341.674,205.832 341.490,204.782 336.965 C 204.280 334.802,204.298 267.312,204.801 264.000 C 205.073 262.209,205.876 260.037,207.383 257.019 C 209.976 251.825,210.203 252.339,205.536 252.846 C 183.215 255.271,171.500 231.529,186.850 214.974 C 191.473 209.988,190.972 217.913,191.200 146.200 L 191.400 83.400 192.304 81.000 C 194.978 73.898,200.046 70.498,204.913 72.540 " stroke="none" fill="#fbbc0c" fill-rule="evenodd"></path><path id="path2" d="M0.000 222.841 L 0.000 445.681 6.454 439.541 C 14.638 431.754,114.833 331.275,115.486 330.200 C 117.258 327.282,109.725 303.257,90.463 250.400 C 82.681 229.045,81.600 225.080,81.600 217.881 C 81.600 208.555,82.189 207.309,98.943 181.200 C 104.660 172.290,113.146 158.970,117.801 151.600 C 122.456 144.230,130.403 131.810,135.460 124.000 C 140.517 116.190,147.332 105.570,150.604 100.400 C 163.347 80.263,169.787 70.078,178.174 56.800 C 191.621 35.512,193.024 34.035,200.462 33.340 C 208.276 32.610,212.130 35.569,220.404 48.649 C 222.892 52.582,231.500 66.150,239.532 78.800 C 247.565 91.450,256.019 104.770,258.320 108.400 C 292.456 162.259,291.698 161.206,295.064 159.393 C 295.816 158.989,319.734 135.274,348.215 106.695 L 400.000 54.733 400.000 27.366 L 400.000 0.000 200.000 0.000 L 0.000 0.000 0.000 222.841 M197.976 73.130 C 195.865 74.468,193.558 77.669,192.304 81.000 L 191.400 83.400 191.200 146.200 C 190.972 217.913,191.473 209.988,186.850 214.974 C 171.411 231.625,183.221 255.273,205.750 252.822 C 210.414 252.315,212.466 251.323,216.492 247.630 C 226.267 238.664,226.335 225.384,216.660 214.934 C 212.360 210.289,212.784 217.789,212.798 146.727 C 212.811 79.758,212.929 83.330,210.554 78.781 C 207.253 72.460,202.441 70.298,197.976 73.130 M136.800 364.220 C 136.470 364.290,135.509 364.460,134.664 364.598 C 129.540 365.437,125.893 372.132,123.441 385.200 C 122.677 389.270,120.343 400.520,118.254 410.200 C 116.165 419.880,113.799 430.860,112.995 434.600 C 111.227 442.830,110.791 446.737,111.217 450.529 C 112.345 460.558,119.239 468.673,128.700 471.106 C 132.912 472.189,269.936 472.176,274.160 471.092 C 287.579 467.649,294.556 455.217,291.496 440.200 C 290.901 437.280,286.554 417.140,282.996 400.820 C 282.208 397.201,280.938 390.721,280.176 386.420 C 277.482 371.224,274.769 365.921,269.000 364.573 C 266.835 364.067,139.134 363.726,136.800 364.220 " stroke="none" fill="#0b2b5b" fill-rule="evenodd"></path></g></svg>