<?xml version="1.0" standalone="no"?>
<!DOCTYPE svg PUBLIC "-//W3C//DTD SVG 20010904//EN"
 "http://www.w3.org/TR/2001/REC-SVG-20010904/DTD/svg10.dtd">
<svg version="1.0" xmlns="http://www.w3.org/2000/svg"
 width="1024.000000pt" height="1024.000000pt" viewBox="0 0 1024.000000 1024.000000"
 preserveAspectRatio="xMidYMid meet">

<g transform="translate(0.000000,1024.000000) scale(0.100000,-0.100000)"
fill="#000000" stroke="none">
<path d="M0 5190 l0 -5051 41 33 c28 22 3680 3680 3736 3742 7 7 -305 917
-438 1277 -107 292 -132 389 -126 499 8 144 -15 102 496 905 123 193 251 393
286 446 74 113 394 615 700 1099 120 190 228 358 239 373 73 99 248 112 341
25 28 -25 120 -161 253 -371 115 -183 268 -424 340 -537 552 -868 688 -1079
693 -1080 3 0 156 152 339 338 183 185 941 947 1684 1692 743 745 1418 1424
1501 1508 l150 152 -5118 0 -5117 0 0 -5050z"/>
<path d="M5054 7972 c-18 -12 -45 -47 -67 -90 l-37 -70 0 -1026 0 -1025 -29
-15 c-45 -24 -108 -103 -131 -164 -29 -76 -28 -179 1 -258 30 -81 112 -162
194 -193 178 -68 374 8 452 174 24 52 28 72 28 150 0 78 -4 97 -28 147 -17 35
-51 78 -87 112 l-60 55 0 1022 0 1021 -36 68 c-20 38 -44 76 -55 86 -29 26
-107 29 -145 6z"/>
<path d="M4011 3320 c-68 -50 -96 -104 -120 -238 -12 -64 -65 -317 -118 -562
-87 -404 -95 -452 -91 -526 4 -67 10 -94 36 -147 45 -90 119 -157 206 -185
l66 -22 1118 0 c1207 0 1172 -1 1265 54 55 31 109 91 140 153 58 115 54 175
-33 574 -105 482 -108 494 -130 629 -25 153 -54 217 -117 265 l-46 35 -1067 0
-1067 0 -42 -30z"/>
</g>
</svg>
