<svg id="svg" version="1.1" xmlns="http://www.w3.org/2000/svg" xmlns:xlink="http://www.w3.org/1999/xlink" width="400" height="507.25552050473186" viewBox="0, 0, 400,507.25552050473186"><g id="svgg"><path id="path0" d="M376.605 78.100 C 363.892 90.915,339.824 115.103,323.120 131.851 L 292.747 162.303 294.561 165.051 C 295.558 166.563,296.533 167.988,296.727 168.218 C 296.920 168.448,297.151 168.808,297.239 169.018 C 297.414 169.433,303.785 179.202,305.575 181.800 C 309.758 187.869,319.365 204.477,320.500 207.600 C 322.590 213.350,322.765 223.005,320.858 227.400 C 320.667 227.840,319.914 230.090,319.184 232.400 C 318.454 234.710,317.730 236.780,317.575 237.000 C 317.419 237.220,317.161 238.030,317.000 238.800 C 316.839 239.570,316.569 240.380,316.400 240.600 C 316.231 240.820,315.961 241.630,315.800 242.400 C 315.639 243.170,315.381 243.980,315.227 244.200 C 315.073 244.420,314.606 245.680,314.189 247.000 C 313.773 248.320,313.311 249.580,313.162 249.800 C 313.014 250.020,312.759 250.824,312.595 251.587 C 312.432 252.350,312.153 253.250,311.975 253.587 C 311.797 253.924,311.085 255.910,310.393 258.000 C 309.701 260.090,308.980 262.160,308.792 262.600 C 308.603 263.040,308.048 264.660,307.558 266.200 C 307.068 267.740,306.550 269.180,306.407 269.400 C 306.263 269.620,305.806 270.880,305.391 272.200 C 304.976 273.520,304.493 274.771,304.318 274.980 C 304.143 275.189,304.000 275.702,304.000 276.120 C 304.000 276.537,303.745 277.446,303.433 278.140 C 303.121 278.833,302.027 281.920,301.003 285.000 C 299.979 288.080,298.986 290.960,298.798 291.400 C 298.426 292.266,294.223 304.661,293.304 307.600 C 292.994 308.590,292.597 309.676,292.421 310.013 C 292.245 310.350,291.968 311.250,291.805 312.013 C 291.641 312.776,291.369 313.580,291.200 313.800 C 291.031 314.020,290.761 314.830,290.600 315.600 C 290.439 316.370,290.186 317.180,290.036 317.400 C 289.887 317.620,289.443 318.790,289.049 320.000 C 288.654 321.210,288.181 322.560,287.996 323.000 C 287.811 323.440,286.828 326.320,285.811 329.400 C 284.795 332.480,283.814 335.276,283.632 335.613 C 283.450 335.950,283.168 336.850,283.005 337.613 C 282.841 338.376,282.581 339.180,282.427 339.400 C 282.273 339.620,281.806 340.880,281.389 342.200 C 280.973 343.520,280.506 344.780,280.352 345.000 C 280.198 345.220,279.945 346.077,279.790 346.904 C 279.636 347.732,279.365 348.498,279.189 348.607 C 279.014 348.715,278.748 349.522,278.600 350.400 C 278.452 351.278,278.166 352.097,277.965 352.222 C 277.764 352.346,277.600 352.876,277.600 353.400 C 277.600 353.924,277.440 354.451,277.245 354.572 C 277.050 354.693,276.770 355.437,276.622 356.226 C 276.010 359.486,272.887 363.200,270.757 363.200 C 268.922 363.200,269.093 363.823,271.406 365.570 C 273.907 367.458,276.417 370.452,277.170 372.446 C 277.451 373.191,277.834 374.160,278.021 374.600 C 278.207 375.040,278.557 376.660,278.797 378.200 C 279.037 379.740,279.503 382.620,279.832 384.600 C 280.161 386.580,280.605 389.370,280.819 390.800 C 281.034 392.230,281.310 393.670,281.433 394.000 C 281.556 394.330,281.808 395.320,281.993 396.200 C 283.945 405.482,284.649 408.695,285.235 411.000 C 285.459 411.880,285.882 413.770,286.176 415.200 C 287.286 420.601,289.066 428.917,289.643 431.400 C 292.450 443.465,293.037 452.264,291.279 455.884 C 291.088 456.278,290.322 457.853,289.578 459.385 C 286.863 464.972,280.705 469.788,274.400 471.254 C 271.275 471.980,131.626 472.040,128.530 471.316 C 119.497 469.204,112.346 460.956,111.187 451.311 C 110.766 447.809,111.208 440.560,111.912 439.419 C 112.042 439.209,112.373 437.859,112.649 436.419 C 112.924 434.978,113.449 432.450,113.814 430.800 C 114.535 427.541,114.831 426.169,115.799 421.600 C 116.148 419.950,116.682 417.430,116.985 416.000 C 117.289 414.570,117.830 412.140,118.188 410.600 C 118.547 409.060,119.004 406.990,119.204 406.000 C 119.403 405.010,119.837 402.940,120.166 401.400 C 120.496 399.860,121.052 397.250,121.401 395.600 C 121.750 393.950,122.208 391.790,122.418 390.800 C 122.950 388.286,123.854 383.155,124.391 379.600 C 124.640 377.950,125.014 376.287,125.222 375.905 C 125.430 375.523,125.600 374.937,125.600 374.602 C 125.600 372.334,129.787 367.214,133.713 364.682 C 135.113 363.780,134.866 363.368,132.759 363.085 C 130.800 362.822,128.429 360.747,127.478 358.461 C 126.505 356.120,118.000 330.034,118.000 329.387 C 118.000 327.923,113.723 332.102,58.525 387.500 L 0.036 446.200 0.018 476.700 L 0.000 507.200 200.000 507.200 L 400.000 507.200 400.000 281.000 C 400.000 156.590,399.936 54.800,399.859 54.800 C 399.781 54.800,389.317 65.285,376.605 78.100 M212.410 82.226 C 212.657 82.877,212.800 106.764,212.800 147.617 L 212.800 211.982 213.900 212.659 C 225.598 219.863,227.371 237.598,217.334 247.000 C 215.690 248.540,212.692 251.427,210.673 253.416 C 203.749 260.233,204.353 255.453,204.488 302.400 L 204.600 341.400 228.000 341.514 C 256.266 341.652,255.450 341.775,257.380 337.102 C 257.766 336.166,258.221 335.124,258.390 334.787 C 258.560 334.450,258.834 333.556,259.000 332.800 C 259.166 332.044,259.456 331.150,259.644 330.813 C 259.979 330.212,260.803 327.825,264.830 315.800 C 265.935 312.500,267.006 309.440,267.209 309.000 C 267.413 308.560,268.125 306.490,268.792 304.400 C 269.459 302.310,270.161 300.324,270.352 299.987 C 270.542 299.650,270.832 298.750,270.996 297.987 C 271.160 297.224,271.402 296.420,271.534 296.200 C 271.869 295.640,273.357 291.451,275.227 285.800 C 276.101 283.160,276.992 280.687,277.208 280.305 C 277.423 279.923,277.600 279.259,277.600 278.829 C 277.600 278.399,277.780 277.936,278.000 277.800 C 278.220 277.664,278.401 277.248,278.402 276.876 C 278.404 276.504,278.657 275.717,278.965 275.127 C 279.273 274.537,279.652 273.457,279.808 272.727 C 279.965 271.997,280.231 271.220,280.400 271.000 C 280.569 270.780,280.840 269.970,281.001 269.200 C 281.162 268.430,281.406 267.620,281.544 267.400 C 281.869 266.879,282.544 265.031,284.029 260.600 C 284.692 258.620,285.497 256.433,285.817 255.740 C 286.138 255.046,286.400 254.212,286.400 253.885 C 286.400 253.559,286.669 252.776,286.998 252.146 C 287.326 251.516,287.596 250.606,287.598 250.124 C 287.599 249.642,287.780 249.136,288.000 249.000 C 288.220 248.864,288.400 248.476,288.400 248.137 C 288.400 247.798,288.658 246.954,288.973 246.260 C 289.288 245.567,290.556 241.940,291.791 238.200 C 293.026 234.460,294.298 230.833,294.618 230.140 C 294.938 229.446,295.200 228.679,295.200 228.434 C 295.200 228.189,295.367 227.677,295.571 227.295 C 297.728 223.258,297.909 217.484,296.007 213.416 C 294.663 210.539,288.452 200.286,287.923 200.067 C 287.745 199.993,287.600 199.760,287.600 199.547 C 287.600 199.335,286.926 198.135,286.103 196.881 C 285.279 195.626,284.467 194.330,284.298 194.000 C 284.129 193.670,283.678 192.921,283.295 192.335 C 282.913 191.749,281.430 189.435,280.000 187.194 C 276.991 182.477,274.062 177.914,273.200 176.598 C 272.181 175.043,268.378 169.045,267.876 168.200 C 267.614 167.760,267.302 167.310,267.181 167.200 C 267.061 167.090,265.839 165.200,264.467 163.000 C 263.094 160.800,260.914 157.380,259.622 155.400 C 257.411 152.009,251.963 143.423,250.200 140.550 C 249.760 139.833,248.037 137.121,246.371 134.523 C 244.704 131.925,239.223 123.320,234.190 115.400 C 229.156 107.480,224.894 100.940,224.719 100.867 C 224.544 100.793,224.400 100.559,224.400 100.345 C 224.400 100.132,223.624 98.752,222.677 97.279 C 221.729 95.805,219.074 91.594,216.777 87.921 C 212.822 81.596,211.530 79.911,212.410 82.226 " stroke="none" fill="#e3e3db" fill-rule="evenodd"></path><path id="path1" d="M199.600 33.159 C 199.270 33.343,198.242 33.608,197.316 33.749 C 194.639 34.155,192.020 35.947,189.800 38.892 C 187.859 41.467,186.760 43.170,179.401 55.000 C 177.485 58.080,175.126 61.798,174.159 63.262 C 173.192 64.726,172.400 66.106,172.400 66.329 C 172.400 66.551,172.261 66.793,172.091 66.867 C 171.812 66.987,166.035 75.944,160.949 84.142 C 159.877 85.871,158.730 87.696,158.400 88.199 C 157.747 89.195,156.294 91.471,150.200 101.048 C 144.920 109.345,144.454 110.094,144.132 110.800 C 143.981 111.130,143.751 111.490,143.620 111.600 C 143.488 111.710,141.866 114.140,140.015 117.000 C 138.164 119.860,135.470 124.000,134.029 126.200 C 132.588 128.400,131.227 130.499,131.004 130.865 C 129.168 133.886,127.406 136.634,127.199 136.800 C 126.969 136.984,121.777 145.210,120.400 147.571 C 120.070 148.137,119.703 148.690,119.584 148.800 C 119.465 148.910,117.763 151.610,115.800 154.800 C 113.837 157.990,112.121 160.690,111.987 160.800 C 111.852 160.910,111.613 161.270,111.455 161.600 C 111.042 162.466,109.280 165.259,105.021 171.800 C 102.895 175.065,101.782 176.792,94.912 187.494 C 87.385 199.218,86.268 201.021,84.805 203.800 C 81.655 209.786,80.523 217.774,81.943 224.000 C 82.169 224.990,82.545 226.691,82.780 227.779 C 83.014 228.867,83.377 230.307,83.588 230.979 C 84.592 234.188,86.143 238.721,86.606 239.800 C 86.889 240.460,87.302 241.540,87.523 242.200 C 88.383 244.771,90.816 251.441,91.170 252.200 C 91.375 252.640,91.909 254.080,92.356 255.400 C 92.803 256.720,93.733 259.330,94.422 261.200 C 95.111 263.070,95.853 265.140,96.071 265.800 C 96.288 266.460,96.616 267.360,96.800 267.800 C 96.984 268.240,97.704 270.310,98.400 272.400 C 99.096 274.490,99.817 276.560,100.003 277.000 C 100.188 277.440,100.898 279.510,101.581 281.600 C 102.263 283.690,102.962 285.670,103.134 286.000 C 103.306 286.330,104.580 290.110,105.966 294.400 C 107.351 298.690,108.636 302.560,108.821 303.000 C 109.006 303.440,109.723 305.600,110.415 307.800 C 111.108 310.000,111.814 312.076,111.986 312.413 C 112.158 312.750,112.434 313.644,112.600 314.400 C 112.766 315.156,113.048 316.050,113.227 316.387 C 113.407 316.724,113.863 318.080,114.242 319.400 C 114.621 320.720,115.061 321.980,115.219 322.200 C 115.378 322.420,115.639 323.230,115.800 324.000 C 115.961 324.770,116.231 325.580,116.400 325.800 C 116.569 326.020,116.833 326.785,116.986 327.500 C 117.138 328.215,117.429 328.800,117.632 328.800 C 117.834 328.800,118.000 329.064,118.000 329.387 C 118.000 330.034,126.505 356.120,127.478 358.461 C 128.429 360.747,130.800 362.822,132.759 363.085 C 133.672 363.208,134.516 363.464,134.633 363.654 C 134.945 364.158,269.089 364.104,269.400 363.600 C 269.536 363.380,270.147 363.200,270.757 363.200 C 272.887 363.200,276.010 359.486,276.622 356.226 C 276.770 355.437,277.050 354.693,277.245 354.572 C 277.440 354.451,277.600 353.924,277.600 353.400 C 277.600 352.876,277.764 352.346,277.965 352.222 C 278.166 352.097,278.452 351.278,278.600 350.400 C 278.748 349.522,279.014 348.715,279.189 348.607 C 279.365 348.498,279.636 347.732,279.790 346.904 C 279.945 346.077,280.198 345.220,280.352 345.000 C 280.506 344.780,280.973 343.520,281.389 342.200 C 281.806 340.880,282.273 339.620,282.427 339.400 C 282.581 339.180,282.841 338.376,283.005 337.613 C 283.168 336.850,283.450 335.950,283.632 335.613 C 283.814 335.276,284.795 332.480,285.811 329.400 C 286.828 326.320,287.811 323.440,287.996 323.000 C 288.181 322.560,288.654 321.210,289.049 320.000 C 289.443 318.790,289.887 317.620,290.036 317.400 C 290.186 317.180,290.439 316.370,290.600 315.600 C 290.761 314.830,291.031 314.020,291.200 313.800 C 291.369 313.580,291.641 312.776,291.805 312.013 C 291.968 311.250,292.245 310.350,292.421 310.013 C 292.597 309.676,292.994 308.590,293.304 307.600 C 294.223 304.661,298.426 292.266,298.798 291.400 C 298.986 290.960,299.979 288.080,301.003 285.000 C 302.027 281.920,303.121 278.833,303.433 278.140 C 303.745 277.446,304.000 276.537,304.000 276.120 C 304.000 275.702,304.143 275.189,304.318 274.980 C 304.493 274.771,304.976 273.520,305.391 272.200 C 305.806 270.880,306.263 269.620,306.407 269.400 C 306.550 269.180,307.068 267.740,307.558 266.200 C 308.048 264.660,308.603 263.040,308.792 262.600 C 308.980 262.160,309.701 260.090,310.393 258.000 C 311.085 255.910,311.797 253.924,311.975 253.587 C 312.153 253.250,312.432 252.350,312.595 251.587 C 312.759 250.824,313.014 250.020,313.162 249.800 C 313.311 249.580,313.773 248.320,314.189 247.000 C 314.606 245.680,315.073 244.420,315.227 244.200 C 315.381 243.980,315.639 243.170,315.800 242.400 C 315.961 241.630,316.231 240.820,316.400 240.600 C 316.569 240.380,316.839 239.570,317.000 238.800 C 317.161 238.030,317.419 237.220,317.575 237.000 C 317.730 236.780,318.454 234.710,319.184 232.400 C 319.914 230.090,320.667 227.840,320.858 227.400 C 322.765 223.005,322.590 213.350,320.500 207.600 C 319.365 204.477,309.758 187.869,305.575 181.800 C 303.785 179.202,297.414 169.433,297.239 169.018 C 297.151 168.808,296.917 168.448,296.719 168.218 C 296.521 167.988,295.244 166.089,293.880 163.997 C 285.949 151.835,284.586 149.735,284.212 149.109 C 282.893 146.897,280.617 143.371,280.398 143.200 C 280.257 143.090,280.018 142.730,279.866 142.400 C 279.715 142.070,279.278 141.324,278.896 140.743 C 278.513 140.162,277.491 138.542,276.624 137.143 C 275.758 135.744,274.948 134.510,274.824 134.400 C 274.701 134.290,274.386 133.840,274.124 133.400 C 273.585 132.493,269.760 126.465,268.704 124.859 C 268.322 124.276,267.885 123.530,267.734 123.200 C 267.582 122.870,267.347 122.510,267.211 122.400 C 267.074 122.290,265.801 120.338,264.381 118.063 C 262.962 115.788,261.487 113.448,261.104 112.863 C 260.722 112.278,260.285 111.530,260.134 111.200 C 259.982 110.870,259.745 110.510,259.607 110.400 C 259.395 110.232,256.340 105.399,254.676 102.600 C 254.414 102.160,254.110 101.710,254.000 101.600 C 253.890 101.490,253.581 101.040,253.313 100.600 C 253.046 100.160,251.641 97.910,250.191 95.600 C 248.741 93.290,247.340 91.040,247.078 90.600 C 246.815 90.160,246.499 89.710,246.376 89.600 C 246.253 89.490,245.271 87.960,244.195 86.200 C 243.118 84.440,241.868 82.460,241.418 81.800 C 240.253 80.095,239.635 79.091,239.327 78.400 C 239.179 78.070,238.944 77.710,238.805 77.600 C 238.665 77.490,237.842 76.256,236.976 74.857 C 236.109 73.458,235.130 71.902,234.800 71.399 C 234.470 70.896,232.760 68.200,231.000 65.407 C 229.240 62.614,227.487 59.850,227.104 59.264 C 226.722 58.679,226.285 57.930,226.134 57.600 C 225.982 57.270,225.743 56.910,225.601 56.800 C 225.460 56.690,223.742 53.990,221.785 50.800 C 219.828 47.610,218.085 44.940,217.913 44.867 C 217.741 44.793,217.600 44.581,217.600 44.395 C 217.600 42.856,211.541 35.825,209.218 34.668 C 206.368 33.248,200.961 32.400,199.600 33.159 M205.425 71.963 C 207.223 72.833,208.060 73.859,210.189 77.800 C 211.020 79.340,211.908 80.780,212.161 81.000 C 212.415 81.220,214.666 84.640,217.165 88.600 C 219.664 92.560,222.314 96.731,223.054 97.868 C 223.794 99.005,224.400 100.115,224.400 100.334 C 224.400 100.554,224.544 100.793,224.719 100.867 C 224.894 100.940,229.156 107.480,234.190 115.400 C 239.223 123.320,244.704 131.925,246.371 134.523 C 248.037 137.121,249.760 139.833,250.200 140.550 C 251.963 143.423,257.411 152.009,259.622 155.400 C 260.914 157.380,263.094 160.800,264.467 163.000 C 265.839 165.200,267.061 167.090,267.181 167.200 C 267.302 167.310,267.614 167.760,267.876 168.200 C 268.378 169.045,272.181 175.043,273.200 176.598 C 274.062 177.914,276.991 182.477,280.000 187.194 C 281.430 189.435,282.913 191.749,283.295 192.335 C 283.678 192.921,284.129 193.670,284.298 194.000 C 284.467 194.330,285.279 195.626,286.103 196.881 C 286.926 198.135,287.600 199.335,287.600 199.547 C 287.600 199.760,287.745 199.993,287.923 200.067 C 288.452 200.286,294.663 210.539,296.007 213.416 C 297.909 217.484,297.728 223.258,295.571 227.295 C 295.367 227.677,295.200 228.189,295.200 228.434 C 295.200 228.679,294.938 229.446,294.618 230.140 C 294.298 230.833,293.026 234.460,291.791 238.200 C 290.556 241.940,289.288 245.567,288.973 246.260 C 288.658 246.954,288.400 247.798,288.400 248.137 C 288.400 248.476,288.220 248.864,288.000 249.000 C 287.780 249.136,287.599 249.642,287.598 250.124 C 287.596 250.606,287.326 251.516,286.998 252.146 C 286.669 252.776,286.400 253.559,286.400 253.885 C 286.400 254.212,286.138 255.046,285.817 255.740 C 285.497 256.433,284.692 258.620,284.029 260.600 C 282.544 265.031,281.869 266.879,281.544 267.400 C 281.406 267.620,281.162 268.430,281.001 269.200 C 280.840 269.970,280.569 270.780,280.400 271.000 C 280.231 271.220,279.965 271.997,279.808 272.727 C 279.652 273.457,279.273 274.537,278.965 275.127 C 278.657 275.717,278.404 276.504,278.402 276.876 C 278.401 277.248,278.220 277.664,278.000 277.800 C 277.780 277.936,277.600 278.399,277.600 278.829 C 277.600 279.259,277.423 279.923,277.208 280.305 C 276.992 280.687,276.101 283.160,275.227 285.800 C 273.357 291.451,271.869 295.640,271.534 296.200 C 271.402 296.420,271.160 297.224,270.996 297.987 C 270.832 298.750,270.542 299.650,270.352 299.987 C 270.161 300.324,269.459 302.310,268.792 304.400 C 268.125 306.490,267.413 308.560,267.209 309.000 C 267.006 309.440,265.935 312.500,264.830 315.800 C 260.803 327.825,259.979 330.212,259.644 330.813 C 259.456 331.150,259.166 332.044,259.000 332.800 C 258.834 333.556,258.560 334.450,258.390 334.787 C 258.221 335.124,257.766 336.166,257.380 337.102 C 255.450 341.775,256.266 341.652,228.000 341.514 L 204.600 341.400 204.488 302.400 C 204.354 255.789,203.840 260.228,210.100 253.899 C 213.901 250.056,213.847 249.875,209.538 252.028 C 206.921 253.336,196.484 253.323,194.078 252.009 C 193.705 251.805,192.680 251.324,191.800 250.940 C 189.851 250.090,186.560 247.702,185.192 246.146 C 183.763 244.521,182.400 242.505,182.400 242.016 C 182.400 241.787,182.262 241.600,182.094 241.600 C 181.008 241.600,179.392 233.150,179.721 229.191 C 180.275 222.539,184.657 215.342,189.860 212.540 L 191.200 211.818 191.200 147.069 L 191.200 82.320 193.021 78.897 C 196.867 71.666,200.554 69.604,205.425 71.963 " stroke="none" fill="#fbbc0c" fill-rule="evenodd"></path><path id="path2" d="M0.000 222.800 C 0.000 353.582,0.148 445.600,0.358 445.600 C 0.555 445.600,26.880 419.315,58.858 387.188 C 121.390 324.365,118.085 327.887,116.435 325.827 C 116.246 325.592,115.961 324.770,115.800 324.000 C 115.639 323.230,115.378 322.420,115.219 322.200 C 115.061 321.980,114.621 320.720,114.242 319.400 C 113.863 318.080,113.407 316.724,113.227 316.387 C 113.048 316.050,112.766 315.156,112.600 314.400 C 112.434 313.644,112.158 312.750,111.986 312.413 C 111.814 312.076,111.108 310.000,110.415 307.800 C 109.723 305.600,109.006 303.440,108.821 303.000 C 108.636 302.560,107.351 298.690,105.966 294.400 C 104.580 290.110,103.306 286.330,103.134 286.000 C 102.962 285.670,102.263 283.690,101.581 281.600 C 100.898 279.510,100.188 277.440,100.003 277.000 C 99.817 276.560,99.096 274.490,98.400 272.400 C 97.704 270.310,96.984 268.240,96.800 267.800 C 96.616 267.360,96.288 266.460,96.071 265.800 C 95.853 265.140,95.111 263.070,94.422 261.200 C 93.733 259.330,92.803 256.720,92.356 255.400 C 91.909 254.080,91.375 252.640,91.170 252.200 C 90.816 251.441,88.383 244.771,87.523 242.200 C 87.302 241.540,86.889 240.460,86.606 239.800 C 86.143 238.721,84.592 234.188,83.588 230.979 C 83.377 230.307,83.014 228.867,82.780 227.779 C 82.545 226.691,82.169 224.990,81.943 224.000 C 80.523 217.774,81.655 209.786,84.805 203.800 C 86.268 201.021,87.385 199.218,94.912 187.494 C 101.782 176.792,102.895 175.065,105.021 171.800 C 109.280 165.259,111.042 162.466,111.455 161.600 C 111.613 161.270,111.852 160.910,111.987 160.800 C 112.121 160.690,113.837 157.990,115.800 154.800 C 117.763 151.610,119.465 148.910,119.584 148.800 C 119.703 148.690,120.070 148.137,120.400 147.571 C 121.777 145.210,126.969 136.984,127.199 136.800 C 127.406 136.634,129.168 133.886,131.004 130.865 C 131.227 130.499,132.588 128.400,134.029 126.200 C 135.470 124.000,138.164 119.860,140.015 117.000 C 141.866 114.140,143.488 111.710,143.620 111.600 C 143.751 111.490,143.981 111.130,144.132 110.800 C 144.454 110.094,144.920 109.345,150.200 101.048 C 156.294 91.471,157.747 89.195,158.400 88.199 C 158.730 87.696,159.877 85.871,160.949 84.142 C 166.035 75.944,171.812 66.987,172.091 66.867 C 172.261 66.793,172.400 66.551,172.400 66.329 C 172.400 66.106,173.192 64.726,174.159 63.262 C 175.126 61.798,177.485 58.080,179.401 55.000 C 186.760 43.170,187.859 41.467,189.800 38.892 C 191.013 37.283,192.541 35.807,193.684 35.141 C 195.353 34.167,196.549 33.802,200.926 32.927 C 204.054 32.301,209.702 34.430,212.479 37.281 C 214.371 39.224,217.600 43.709,217.600 44.395 C 217.600 44.581,217.741 44.793,217.913 44.867 C 218.085 44.940,219.828 47.610,221.785 50.800 C 223.742 53.990,225.460 56.690,225.601 56.800 C 225.743 56.910,225.982 57.270,226.134 57.600 C 226.285 57.930,226.722 58.679,227.104 59.264 C 227.487 59.850,229.240 62.614,231.000 65.407 C 232.760 68.200,234.470 70.896,234.800 71.399 C 235.130 71.902,236.109 73.458,236.976 74.857 C 237.842 76.256,238.652 77.490,238.776 77.600 C 239.086 77.876,239.951 79.275,240.262 80.000 C 240.403 80.330,240.905 81.140,241.378 81.800 C 241.850 82.460,243.118 84.440,244.195 86.200 C 245.271 87.960,246.253 89.490,246.376 89.600 C 246.499 89.710,246.815 90.160,247.078 90.600 C 247.340 91.040,248.741 93.290,250.191 95.600 C 251.641 97.910,253.046 100.160,253.313 100.600 C 253.581 101.040,253.890 101.490,254.000 101.600 C 254.110 101.710,254.414 102.160,254.676 102.600 C 256.340 105.399,259.395 110.232,259.607 110.400 C 259.745 110.510,259.982 110.870,260.134 111.200 C 260.285 111.530,260.722 112.278,261.104 112.863 C 261.487 113.448,262.962 115.788,264.381 118.063 C 265.801 120.338,267.074 122.290,267.211 122.400 C 267.347 122.510,267.582 122.870,267.734 123.200 C 267.885 123.530,268.322 124.276,268.704 124.859 C 269.760 126.465,273.585 132.493,274.124 133.400 C 274.386 133.840,274.701 134.290,274.824 134.400 C 274.948 134.510,275.758 135.744,276.624 137.143 C 277.491 138.542,278.513 140.162,278.896 140.743 C 279.278 141.324,279.715 142.070,279.866 142.400 C 280.018 142.730,280.257 143.090,280.398 143.200 C 280.539 143.310,281.362 144.533,282.227 145.919 C 283.092 147.304,284.070 148.867,284.400 149.393 C 287.652 154.571,292.603 162.000,292.802 162.000 C 293.055 162.000,334.345 120.676,376.732 78.000 L 399.974 54.600 399.987 27.300 L 400.000 0.000 200.000 0.000 L 0.000 0.000 0.000 222.800 M198.092 72.300 C 196.017 73.701,195.261 74.686,193.021 78.897 L 191.200 82.320 191.200 147.069 L 191.200 211.818 189.860 212.540 C 184.657 215.342,180.275 222.539,179.721 229.191 C 179.392 233.150,181.008 241.600,182.094 241.600 C 182.262 241.600,182.400 241.787,182.400 242.016 C 182.400 242.505,183.763 244.521,185.192 246.146 C 186.560 247.702,189.851 250.090,191.800 250.940 C 192.680 251.324,193.705 251.805,194.078 252.009 C 196.487 253.325,206.941 253.336,209.538 252.025 C 209.902 251.842,211.179 251.266,212.375 250.746 C 226.764 244.491,227.698 221.157,213.900 212.659 L 212.800 211.982 212.800 147.445 L 212.800 82.907 211.337 79.954 C 207.163 71.522,202.895 69.056,198.092 72.300 M133.800 364.607 C 131.295 366.427,130.465 367.120,129.200 368.448 C 127.694 370.029,125.600 373.609,125.600 374.602 C 125.600 374.937,125.430 375.523,125.222 375.905 C 125.014 376.287,124.640 377.950,124.391 379.600 C 123.854 383.155,122.950 388.286,122.418 390.800 C 122.208 391.790,121.758 393.905,121.418 395.500 C 119.953 402.373,119.546 404.302,119.204 406.000 C 119.004 406.990,118.547 409.060,118.188 410.600 C 117.830 412.140,117.273 414.660,116.951 416.200 C 116.629 417.740,116.095 420.260,115.765 421.800 C 115.434 423.340,115.009 425.320,114.821 426.200 C 114.632 427.080,114.179 429.150,113.814 430.800 C 113.449 432.450,112.924 434.978,112.649 436.419 C 112.373 437.859,112.042 439.209,111.912 439.419 C 111.208 440.560,110.766 447.809,111.187 451.311 C 112.346 460.956,119.497 469.204,128.530 471.316 C 131.626 472.040,271.275 471.980,274.400 471.254 C 280.705 469.788,286.863 464.972,289.578 459.385 C 290.322 457.853,291.088 456.278,291.279 455.884 C 293.037 452.264,292.450 443.465,289.643 431.400 C 289.066 428.917,287.286 420.601,286.176 415.200 C 285.882 413.770,285.459 411.880,285.235 411.000 C 284.649 408.695,283.945 405.482,281.993 396.200 C 281.808 395.320,281.556 394.330,281.433 394.000 C 281.310 393.670,281.034 392.230,280.819 390.800 C 280.605 389.370,280.161 386.580,279.832 384.600 C 279.503 382.620,279.037 379.740,278.797 378.200 C 278.557 376.660,278.207 375.040,278.021 374.600 C 277.834 374.160,277.451 373.191,277.170 372.446 C 276.423 370.468,273.913 367.462,271.466 365.615 L 269.327 364.000 201.964 364.013 C 143.697 364.024,134.492 364.104,133.800 364.607 " stroke="none" fill="#0b2b5b" fill-rule="evenodd"></path></g></svg>